<svg xmlns="http://www.w3.org/2000/svg" viewBox="0 0 1600 900" width="1600" height="900">
<defs>
  <filter id="rough" x="-6%" y="-6%" width="112%" height="112%">
    <feTurbulence type="fractalNoise" baseFrequency="0.014" numOctaves="2" seed="6" result="n"></feTurbulence>
    <feDisplacementMap in="SourceGraphic" in2="n" scale="3" xChannelSelector="R" yChannelSelector="G"></feDisplacementMap>
  </filter>
  <marker id="arw-black" viewBox="0 0 12 12" refX="9" refY="6" markerWidth="7.5" markerHeight="7.5" orient="auto-start-reverse"><path d="M1 1 L11 6 L1 11" fill="none" stroke="#111111" stroke-width="2.2" stroke-linecap="round" stroke-linejoin="round"></path></marker><marker id="arw-blue" viewBox="0 0 12 12" refX="9" refY="6" markerWidth="7.5" markerHeight="7.5" orient="auto-start-reverse"><path d="M1 1 L11 6 L1 11" fill="none" stroke="#2684FF" stroke-width="2.2" stroke-linecap="round" stroke-linejoin="round"></path></marker><marker id="arw-yellow" viewBox="0 0 12 12" refX="9" refY="6" markerWidth="7.5" markerHeight="7.5" orient="auto-start-reverse"><path d="M1 1 L11 6 L1 11" fill="none" stroke="#F2C300" stroke-width="2.2" stroke-linecap="round" stroke-linejoin="round"></path></marker><marker id="arw-green" viewBox="0 0 12 12" refX="9" refY="6" markerWidth="7.5" markerHeight="7.5" orient="auto-start-reverse"><path d="M1 1 L11 6 L1 11" fill="none" stroke="#22B573" stroke-width="2.2" stroke-linecap="round" stroke-linejoin="round"></path></marker><marker id="arw-purple" viewBox="0 0 12 12" refX="9" refY="6" markerWidth="7.5" markerHeight="7.5" orient="auto-start-reverse"><path d="M1 1 L11 6 L1 11" fill="none" stroke="#7E57C2" stroke-width="2.2" stroke-linecap="round" stroke-linejoin="round"></path></marker><marker id="arw-orange" viewBox="0 0 12 12" refX="9" refY="6" markerWidth="7.5" markerHeight="7.5" orient="auto-start-reverse"><path d="M1 1 L11 6 L1 11" fill="none" stroke="#FF8A3D" stroke-width="2.2" stroke-linecap="round" stroke-linejoin="round"></path></marker><marker id="arw-red" viewBox="0 0 12 12" refX="9" refY="6" markerWidth="7.5" markerHeight="7.5" orient="auto-start-reverse"><path d="M1 1 L11 6 L1 11" fill="none" stroke="#E74C3C" stroke-width="2.2" stroke-linecap="round" stroke-linejoin="round"></path></marker><marker id="arw-turq" viewBox="0 0 12 12" refX="9" refY="6" markerWidth="7.5" markerHeight="7.5" orient="auto-start-reverse"><path d="M1 1 L11 6 L1 11" fill="none" stroke="#24A8A8" stroke-width="2.2" stroke-linecap="round" stroke-linejoin="round"></path></marker>
</defs>
<g id="header"><text x="70" y="72" font-family="&#39;Caveat&#39;,&#39;Segoe Print&#39;,&#39;Bradley Hand&#39;,&#39;Comic Sans MS&#39;,cursive" font-size="38" fill="#111111" text-anchor="start" font-weight="700">Workflow Supabase</text><text x="72" y="98" font-family="&#39;Patrick Hand&#39;,&#39;Segoe Print&#39;,&#39;Bradley Hand&#39;,&#39;Comic Sans MS&#39;,cursive" font-size="19" fill="#666" text-anchor="start">Backend tout-en-un</text><path d="M70 82 L359 82" fill="none" stroke="#F2C300" stroke-width="6" stroke-linecap="round" filter="url(#rough)"></path></g><g id="flow-arrows"><path d="M366 261 q 57.33333333333337 -10 114.66666666666674 0" fill="none" stroke="#111111" stroke-width="3" stroke-linecap="round" stroke-linejoin="round" marker-end="url(#arw-black)"></path><path d="M742.6666666666667 261 q 57.333333333333314 -10 114.66666666666663 0" fill="none" stroke="#111111" stroke-width="3" stroke-linecap="round" stroke-linejoin="round" marker-end="url(#arw-black)"></path><path d="M1119.3333333333335 261 q 57.33333333333326 -10 114.66666666666652 0" fill="none" stroke="#111111" stroke-width="3" stroke-linecap="round" stroke-linejoin="round" marker-end="url(#arw-black)"></path><path d="M1365 383 C 1365 438 420 417 420 472" fill="none" stroke="#111111" stroke-width="3" stroke-linecap="round" stroke-linejoin="round" marker-end="url(#arw-black)"></path><path d="M551 526 q 59 -10 118 0" fill="none" stroke="#111111" stroke-width="3" stroke-linecap="round" stroke-linejoin="round" marker-end="url(#arw-black)"></path><path d="M931 526 q 59 -10 118 0" fill="none" stroke="#111111" stroke-width="3" stroke-linecap="round" stroke-linejoin="round" marker-end="url(#arw-black)"></path></g><g id="steps"><g id="step-tables"><g fill="none" stroke="#111111" stroke-width="2.6" stroke-linecap="round" stroke-linejoin="round" filter="url(#rough)" transform="translate(204.0,230.0) scale(1.292)"><ellipse cx="24" cy="12" rx="14" ry="5"></ellipse><path d="M10 12 L10 36 C10 41 38 41 38 36 L38 12"></path><path d="M10 24 C10 29 38 29 38 24"></path></g><text x="235" y="319" font-family="&#39;Patrick Hand&#39;,&#39;Segoe Print&#39;,&#39;Bradley Hand&#39;,&#39;Comic Sans MS&#39;,cursive" font-size="27" fill="#111111" text-anchor="middle">Concevoir les tables</text><path d="M115 329 q 120 6 240 0" fill="none" stroke="#2684FF" stroke-width="5" stroke-linecap="round" filter="url(#rough)"></path><text x="235" y="355" font-family="&#39;Patrick Hand&#39;,&#39;Segoe Print&#39;,&#39;Bradley Hand&#39;,&#39;Comic Sans MS&#39;,cursive" font-size="19" fill="#444" text-anchor="middle">PostgreSQL</text><g><circle cx="117" cy="221" r="21" fill="#2684FF"></circle><text x="117" y="230" font-family="&#39;Caveat&#39;,&#39;Segoe Print&#39;,&#39;Bradley Hand&#39;,&#39;Comic Sans MS&#39;,cursive" font-size="29" fill="#fff" text-anchor="middle" font-weight="700">1</text></g></g><g id="step-migrations"><g fill="none" stroke="#111111" stroke-width="2.6" stroke-linecap="round" stroke-linejoin="round" filter="url(#rough)" transform="translate(580.7,230.0) scale(1.292)"><path d="M9 17 L34 17 M28 11 L34 17 L28 23"></path><path d="M39 33 L14 33 M20 27 L14 33 L20 39"></path></g><text x="611.6666666666667" y="319" font-family="&#39;Patrick Hand&#39;,&#39;Segoe Print&#39;,&#39;Bradley Hand&#39;,&#39;Comic Sans MS&#39;,cursive" font-size="27" fill="#111111" text-anchor="middle">Créer les migrations</text><path d="M491.66666666666674 329 q 120 6 240 0" fill="none" stroke="#22B573" stroke-width="5" stroke-linecap="round" filter="url(#rough)"></path><text x="611.6666666666667" y="355" font-family="&#39;Patrick Hand&#39;,&#39;Segoe Print&#39;,&#39;Bradley Hand&#39;,&#39;Comic Sans MS&#39;,cursive" font-size="19" fill="#444" text-anchor="middle">Schéma versionné</text><g><circle cx="493.66666666666674" cy="221" r="21" fill="#22B573"></circle><text x="493.66666666666674" y="230" font-family="&#39;Caveat&#39;,&#39;Segoe Print&#39;,&#39;Bradley Hand&#39;,&#39;Comic Sans MS&#39;,cursive" font-size="29" fill="#fff" text-anchor="middle" font-weight="700">2</text></g></g><g id="step-auth"><g fill="none" stroke="#111111" stroke-width="2.6" stroke-linecap="round" stroke-linejoin="round" filter="url(#rough)" transform="translate(957.3,230.0) scale(1.292)"><rect x="12" y="22" width="24" height="18" rx="3"></rect><path d="M17 22 L17 16 C17 8 31 8 31 16 L31 22"></path><circle cx="24" cy="30" r="2.6"></circle></g><text x="988.3333333333334" y="319" font-family="&#39;Patrick Hand&#39;,&#39;Segoe Print&#39;,&#39;Bradley Hand&#39;,&#39;Comic Sans MS&#39;,cursive" font-size="27" fill="#111111" text-anchor="middle">Authentification</text><path d="M886.3333333333334 329 q 102 6 204 0" fill="none" stroke="#7E57C2" stroke-width="5" stroke-linecap="round" filter="url(#rough)"></path><text x="988.3333333333334" y="355" font-family="&#39;Patrick Hand&#39;,&#39;Segoe Print&#39;,&#39;Bradley Hand&#39;,&#39;Comic Sans MS&#39;,cursive" font-size="19" fill="#444" text-anchor="middle">Utilisateurs</text><text x="988.3333333333334" y="379" font-family="&#39;Patrick Hand&#39;,&#39;Segoe Print&#39;,&#39;Bradley Hand&#39;,&#39;Comic Sans MS&#39;,cursive" font-size="19" fill="#444" text-anchor="middle">+ sessions</text><g><circle cx="870.3333333333334" cy="221" r="21" fill="#7E57C2"></circle><text x="870.3333333333334" y="230" font-family="&#39;Caveat&#39;,&#39;Segoe Print&#39;,&#39;Bradley Hand&#39;,&#39;Comic Sans MS&#39;,cursive" font-size="29" fill="#fff" text-anchor="middle" font-weight="700">3</text></g></g><g id="step-rls"><g fill="none" stroke="#111111" stroke-width="2.6" stroke-linecap="round" stroke-linejoin="round" filter="url(#rough)" transform="translate(1334.0,230.0) scale(1.292)"><path d="M24 7 L38 13 L38 25 C38 35 24 42 24 42 C24 42 10 35 10 25 L10 13 Z"></path><path d="M18 24 L23 29 L32 18"></path></g><text x="1365" y="319" font-family="&#39;Patrick Hand&#39;,&#39;Segoe Print&#39;,&#39;Bradley Hand&#39;,&#39;Comic Sans MS&#39;,cursive" font-size="27" fill="#111111" text-anchor="middle">Règles RLS</text><path d="M1299 329 q 66 6 132 0" fill="none" stroke="#FF8A3D" stroke-width="5" stroke-linecap="round" filter="url(#rough)"></path><text x="1365" y="355" font-family="&#39;Patrick Hand&#39;,&#39;Segoe Print&#39;,&#39;Bradley Hand&#39;,&#39;Comic Sans MS&#39;,cursive" font-size="19" fill="#444" text-anchor="middle">Sécuriser</text><text x="1365" y="379" font-family="&#39;Patrick Hand&#39;,&#39;Segoe Print&#39;,&#39;Bradley Hand&#39;,&#39;Comic Sans MS&#39;,cursive" font-size="19" fill="#444" text-anchor="middle">les données</text><g><circle cx="1247" cy="221" r="21" fill="#FF8A3D"></circle><text x="1247" y="230" font-family="&#39;Caveat&#39;,&#39;Segoe Print&#39;,&#39;Bradley Hand&#39;,&#39;Comic Sans MS&#39;,cursive" font-size="29" fill="#fff" text-anchor="middle" font-weight="700">4</text></g></g><g id="step-storage"><g fill="none" stroke="#111111" stroke-width="2.6" stroke-linecap="round" stroke-linejoin="round" filter="url(#rough)" transform="translate(389.0,495.0) scale(1.292)"><path d="M8 15 L20 15 L24 21 L40 21 L40 38 L8 38 Z"></path></g><text x="420" y="584" font-family="&#39;Patrick Hand&#39;,&#39;Segoe Print&#39;,&#39;Bradley Hand&#39;,&#39;Comic Sans MS&#39;,cursive" font-size="27" fill="#111111" text-anchor="middle">Gérer les fichiers</text><path d="M306 594 q 114 6 228 0" fill="none" stroke="#24A8A8" stroke-width="5" stroke-linecap="round" filter="url(#rough)"></path><text x="420" y="620" font-family="&#39;Patrick Hand&#39;,&#39;Segoe Print&#39;,&#39;Bradley Hand&#39;,&#39;Comic Sans MS&#39;,cursive" font-size="19" fill="#444" text-anchor="middle">Storage</text><g><circle cx="302" cy="486" r="21" fill="#24A8A8"></circle><text x="302" y="495" font-family="&#39;Caveat&#39;,&#39;Segoe Print&#39;,&#39;Bradley Hand&#39;,&#39;Comic Sans MS&#39;,cursive" font-size="29" fill="#fff" text-anchor="middle" font-weight="700">5</text></g></g><g id="step-realtime"><g fill="none" stroke="#111111" stroke-width="2.6" stroke-linecap="round" stroke-linejoin="round" filter="url(#rough)" transform="translate(769.0,495.0) scale(1.292)"><path d="M26 7 L13 28 L23 28 L19 41 L35 21 L25 21 Z"></path></g><text x="800" y="584" font-family="&#39;Patrick Hand&#39;,&#39;Segoe Print&#39;,&#39;Bradley Hand&#39;,&#39;Comic Sans MS&#39;,cursive" font-size="27" fill="#111111" text-anchor="middle">Temps réel</text><path d="M734 594 q 66 6 132 0" fill="none" stroke="#F2C300" stroke-width="5" stroke-linecap="round" filter="url(#rough)"></path><text x="800" y="620" font-family="&#39;Patrick Hand&#39;,&#39;Segoe Print&#39;,&#39;Bradley Hand&#39;,&#39;Comic Sans MS&#39;,cursive" font-size="19" fill="#444" text-anchor="middle">Realtime</text><g><circle cx="682" cy="486" r="21" fill="#F2C300"></circle><text x="682" y="495" font-family="&#39;Caveat&#39;,&#39;Segoe Print&#39;,&#39;Bradley Hand&#39;,&#39;Comic Sans MS&#39;,cursive" font-size="29" fill="#fff" text-anchor="middle" font-weight="700">6</text></g></g><g id="step-frontend"><g fill="none" stroke="#111111" stroke-width="2.6" stroke-linecap="round" stroke-linejoin="round" filter="url(#rough)" transform="translate(1149.0,495.0) scale(1.292)"><path d="M18 8 L18 18 M30 8 L30 18"></path><path d="M12 18 L36 18 L36 24 C36 32 12 32 12 24 Z"></path><line x1="24" y1="32" x2="24" y2="42"></line></g><text x="1180" y="584" font-family="&#39;Patrick Hand&#39;,&#39;Segoe Print&#39;,&#39;Bradley Hand&#39;,&#39;Comic Sans MS&#39;,cursive" font-size="27" fill="#111111" text-anchor="middle">Connecter le front</text><path d="M1066 594 q 114 6 228 0" fill="none" stroke="#E74C3C" stroke-width="5" stroke-linecap="round" filter="url(#rough)"></path><text x="1180" y="620" font-family="&#39;Patrick Hand&#39;,&#39;Segoe Print&#39;,&#39;Bradley Hand&#39;,&#39;Comic Sans MS&#39;,cursive" font-size="19" fill="#444" text-anchor="middle">API Supabase</text><g><circle cx="1062" cy="486" r="21" fill="#E74C3C"></circle><text x="1062" y="495" font-family="&#39;Caveat&#39;,&#39;Segoe Print&#39;,&#39;Bradley Hand&#39;,&#39;Comic Sans MS&#39;,cursive" font-size="29" fill="#fff" text-anchor="middle" font-weight="700">7</text></g></g></g><g id="regroupe"><text x="800" y="770" font-family="&#39;Caveat&#39;,&#39;Segoe Print&#39;,&#39;Bradley Hand&#39;,&#39;Comic Sans MS&#39;,cursive" font-size="24" fill="#24A8A8" text-anchor="middle" font-weight="600">Supabase regroupe :  base de données · auth · stockage · temps réel · sécurité</text><path d="M470 782 q 330 10 660 0" fill="none" stroke="#24A8A8" stroke-width="5" stroke-linecap="round" filter="url(#rough)"></path></g>
</svg>